#!OML:ASF \\Waltz\H\Terrain\Patient Classification 1\Animal2\Wednesday\Animal2.ASF
:FULLY-SPECIFIED
:DEGREES
626
root 7.23234 17.3339 -10.128 260.66 -90.2366 -267.99
lowerback 6.0109 -2.14293 -0.104865
upperback -0.380979 -2.82797 1.2481
thorax -3.69352 -1.39559 1.60337
lowerneck 3.10517 6.94757 14.6784
upperneck 3.15816 10.0949 -17.6292
head 2.07629 5.06949 -7.61858
rclavicle 1.49089e-015 -8.74653e-015
rhumerus -8.40052 58.3858 -39.8797
rradius 74.5594
rwrist 29.6918
rhand 7.21168 35.7496
rfingers 7.12502
rthumb 32.4772 8.64051
lclavicle 1.49089e-015 -8.74653e-015
lhumerus -28.4994 -66.5582 47.6208
lradius 74.0799
lwrist -3.84083
lhand -9.92818 -0.824786
lfingers 7.12502
lthumb 16.0528 28.5302
rfemur -23.7922 -21.0377 26.2444
rtibia 37.2499
rfoot -16.2365 -10.917
rtoes 37.1708
lfemur 1.95566 12.6028 -18.6958
ltibia 32.277
lfoot -26.4248 12.1169
ltoes -14.3979
627
root 7.18724 17.3177 -10.1321 181.644 -90.0993 -189.206
lowerback 6.12143 -2.19223 -0.227059
upperback -0.46048 -2.9059 1.07483
thorax -3.83885 -1.43114 1.50731
lowerneck 3.36584 6.91849 14.8412
upperneck 3.19807 10.0941 -17.6736
head 2.05438 5.08162 -7.67115
rclavicle 3.926e-015 -5.56597e-015
rhumerus -6.62256 57.6706 -37.5232
rradius 75.7887
rwrist 29.427
rhand 7.1263 35.6552
rfingers 7.12502
rthumb 32.3959 8.5295
lclavicle 3.926e-015 -5.56597e-015
lhumerus -24.4786 -66.4345 42.1302
lradius 75.0592
lwrist -2.9408
lhand -10.3618 -0.640387
lfingers 7.12502
lthumb 15.6352 28.7478
rfemur -23.7951 -21.4302 26.2027
rtibia 36.8811
rfoot -15.2223 -12.6337
rtoes 39.2805
lfemur 2.33047 12.4834 -18.8834
ltibia 32.3847
lfoot -26.5524 12.0029
ltoes -13.6724
628
root 7.14417 17.297 -10.1409 239.46 -90.2637 -247.32
lowerback 6.3008 -2.21354 0.10744
upperback -0.45118 -2.9103 1.03669
thorax -3.94866 -1.43995 1.28952
lowerneck 3.49881 6.87682 14.9035
upperneck 3.11686 10.0465 -17.7024
head 2.00526 5.06564 -7.7002
rclavicle -2.82274e-014 -9.14409e-015
rhumerus -4.91932 56.8757 -35.0422
rradius 77.4368
rwrist 28.5611
rhand 7.97805 35.4072
rfingers 7.12502
rthumb 33.2062 8.45069
lclavicle -2.82274e-014 -9.14409e-015
lhumerus -20.272 -66.1565 36.5643
lradius 75.8652
lwrist -2.32298
lhand -11.4064 -1.16121
lfingers 7.12502
lthumb 14.6289 28.3028
rfemur -23.7425 -21.7275 26.645
rtibia 36.8546
rfoot -14.4462 -14.5724
rtoes 40.3685
lfemur 2.71145 12.2086 -18.5113
ltibia 32.4859
lfoot -27.0232 11.2773
ltoes -10.0754
629
root 7.09468 17.2683 -10.1466 239.039 -90.4381 -247.133
lowerback 6.30609 -2.22521 0.442183
upperback -0.403793 -2.90471 0.936066
thorax -3.92453 -1.44529 0.997183
lowerneck 3.43849 6.84082 14.7803
upperneck 3.12037 9.97842 -17.416
head 1.9838 5.03114 -7.58761
rclavicle -6.00827e-014 7.55382e-015
rhumerus -3.44376 55.8764 -32.8152
rradius 79.055
rwrist 27.7587
rhand 8.97405 35.0608
rfingers 7.12502
rthumb 34.1526 8.311
lclavicle -6.00827e-014 7.55382e-015
lhumerus -15.8795 -65.7365 30.9222
lradius 76.6004
lwrist -1.58635
lhand -11.2669 -1.30388
lfingers 7.12502
lthumb 14.7634 28.1503
rfemur -23.7775 -22.1624 27.0174
rtibia 37.1491
rfoot -14.2144 -16.0918
rtoes 41.7728
lfemur 3.05799 12.1379 -18.1521
ltibia 32.6256
lfoot -27.7059 10.2454
ltoes -6.15476
630
root 7.04237 17.244 -10.1524 200.3 -90.4399 -208.695
lowerback 6.20181 -2.25625 0.154273
upperback -0.244429 -2.97147 0.902177
thorax -3.6871 -1.47474 1.11973
lowerneck 3.41494 6.82596 14.5742
upperneck 3.09018 9.94107 -17.3188
head 1.95724 5.00967 -7.52317
rclavicle -2.43014e-014 1.43125e-014
rhumerus -1.63479 54.7327 -30.1945
rradius 80.4679
rwrist 27.436
rhand 8.8716 35.1295
rfingers 7.12502
rthumb 34.0553 8.35801
lclavicle -2.43014e-014 1.43125e-014
lhumerus -11.9826 -65.0187 26.0259
lradius 77.3385
lwrist -0.713259
lhand -10.6972 -0.810004
lfingers 7.12502
lthumb 15.3122 28.6031
rfemur -23.7028 -22.6155 26.8567
rtibia 37.6838
rfoot -15.0767 -16.6567
rtoes 43.9901
lfemur 3.44544 12.1589 -18.2134
ltibia 32.9138
lfoot -28.0191 10.1013
ltoes -6.13951
631
root 6.99314 17.2238 -10.1663 162.889 -90.608 -171.503
lowerback 6.15309 -2.2679 -0.355169
upperback -0.219028 -3.02432 0.897985
thorax -3.60644 -1.49202 1.40151
lowerneck 3.66629 6.80983 14.34
upperneck 2.98865 9.92315 -17.2616
head 1.86779 5.00949 -7.47856
rclavicle 4.29375e-014 -2.8625e-014
rhumerus -0.155079 53.7671 -27.7628
rradius 81.9253
rwrist 27.2915
rhand 8.01206 35.5219
rfingers 7.12502
rthumb 33.2385 8.5723
lclavicle 4.29375e-014 -2.8625e-014
lhumerus -8.75791 -64.3643 21.9007
lradius 77.9781
lwrist -0.296782
lhand -10.68 -0.583677
lfingers 7.12502
lthumb 15.3288 28.8282
rfemur -23.6552 -22.663 26.5062
rtibia 38.3583
rfoot -15.9341 -16.4746
rtoes 45.0102
lfemur 3.62614 12.3657 -18.3601
ltibia 33.3947
lfoot -28.0558 10.346
ltoes -8.67581
632
root 6.94472 17.1894 -10.175 155.462 -90.7636 -164.252
lowerback 6.20532 -2.21465 -0.411955
upperback -0.288067 -2.95882 0.826073
thorax -3.7098 -1.45747 1.35767
lowerneck 3.7595 6.73202 14.0993
upperneck 3.03088 9.81396 -17.0599
head 1.8239 4.95661 -7.38279
rclavicle 1.6847e-014 -9.93923e-015
rhumerus 0.598302 52.844 -25.8871
rradius 83.5154
rwrist 27.0326
rhand 7.78739 35.6547
rfingers 7.12502
rthumb 33.0249 8.65971
lclavicle 1.6847e-014 -9.93923e-015
lhumerus -5.30781 -63.8568 17.6358
lradius 78.5524
lwrist 0.0464378
lhand -10.7164 -0.463522
lfingers 7.12502
lthumb 15.2937 28.951
rfemur -23.5727 -22.551 26.3113
rtibia 39.0185
rfoot -16.2246 -16.0533
rtoes 45.2117
lfemur 3.6869 12.7659 -18.2099
ltibia 34.0498
lfoot -28.3372 9.88621
ltoes -9.34674
633
root 6.89233 17.1433 -10.1771 161.18 -90.8642 -170.178
lowerback 6.09993 -2.19792 -0.126886
upperback -0.211543 -2.92087 0.692641
thorax -3.59348 -1.4462 1.05065
lowerneck 3.60247 6.67511 14.159
upperneck 3.13047 9.73173 -17.0295
head 1.86706 4.90895 -7.37956
rclavicle -2.19657e-014 2.78299e-015
rhumerus 1.24664 51.678 -24.2709
rradius 85.0668
rwrist 26.6231
rhand 8.35858 35.717
rfingers 7.12502
rthumb 33.5679 8.83835
lclavicle -2.19657e-014 2.78299e-015
lhumerus -1.95735 -63.1894 13.2442
lradius 79.3433
lwrist 0.5715
lhand -10.6573 -0.384828
lfingers 7.12502
lthumb 15.3506 29.0254
rfemur -23.318 -22.4482 26.1741
rtibia 39.5334
rfoot -16.5084 -15.5793
rtoes 45.3984
lfemur 3.7238 12.9498 -17.9212
ltibia 34.8655
lfoot -28.8562 9.41334
ltoes -9.24054
634
root 6.83891 17.0963 -10.1789 162.746 -91.0579 -171.949
lowerback 6.05243 -2.1464 0.282721
upperback -0.18809 -2.83195 0.416795
thorax -3.57792 -1.41155 0.527338
lowerneck 3.46498 6.54797 14.3186
upperneck 3.3042 9.56558 -16.9689
head 1.91804 4.82156 -7.38795
rclavicle -1.95306e-014 1.98785e-015
rhumerus 1.35666 50.8943 -23.2517
rradius 87.9452
rwrist 22.5421
rhand 15.7846 32.3135
rfingers 7.12502
rthumb 40.5897 7.26808
lclavicle -1.95306e-014 1.98785e-015
lhumerus 1.45722 -62.5525 8.81392
lradius 80.2384
lwrist 1.0049
lhand -10.4831 -0.176427
lfingers 7.12502
lthumb 15.5184 29.2208
rfemur -23.0163 -22.3358 25.9114
rtibia 39.9496
rfoot -16.6901 -15.2864
rtoes 44.467
lfemur 3.71001 12.8653 -17.8029
ltibia 35.747
lfoot -29.4879 9.2762
ltoes -9.73425
635
root 6.78931 17.0453 -10.1826 170.423 -91.1955 -179.879
lowerback 6.15609 -2.05068 0.650902
upperback -0.191178 -2.67961 0.345712
thorax -3.66049 -1.34302 0.239039
lowerneck 3.32303 6.37636 14.2629
upperneck 3.52579 9.33448 -16.9878
head 1.96603 4.69554 -7.3894
rclavicle 2.73329e-015 -1.47101e-014
rhumerus 1.58871 49.7758 -22.0052
rradius 89.6025
rwrist 21.2124
rhand 17.8954 31.3567
rfingers 7.12502
rthumb 42.5697 6.9604
lclavicle 2.73329e-015 -1.47101e-014
lhumerus 4.42805 -61.7399 5.39732
lradius 80.6533
lwrist 1.33574
lhand -10.2227 -0.148888
lfingers 7.12502
lthumb 15.7692 29.2288
rfemur -22.7221 -22.2811 25.8964
rtibia 40.3902
rfoot -16.5328 -15.5122
rtoes 42.031
lfemur 3.77239 13.0286 -17.3859
ltibia 36.5965
lfoot -30.0972 9.01178
ltoes -10.6576
